<svg width="24" height="24" viewBox="0 0 24 24" fill="none" xmlns="http://www.w3.org/2000/svg">
<path d="M10.1409 23.0001C10.772 23.0001 11.2835 22.4529 11.2835 21.7779C11.2835 21.1029 10.772 20.5557 10.1409 20.5557C9.50986 20.5557 8.99829 21.1029 8.99829 21.7779C8.99829 22.4529 9.50986 23.0001 10.1409 23.0001Z" fill="white" stroke="white" stroke-width="1.5" stroke-linecap="round" stroke-linejoin="round"/>
<path d="M18.1397 23.0001C18.7707 23.0001 19.2823 22.4529 19.2823 21.7779C19.2823 21.1029 18.7707 20.5557 18.1397 20.5557C17.5086 20.5557 16.9971 21.1029 16.9971 21.7779C16.9971 22.4529 17.5086 23.0001 18.1397 23.0001Z" fill="white" stroke="white" stroke-width="1.5" stroke-linecap="round" stroke-linejoin="round"/>
<path d="M1.00073 1H4.53633L7.18803 17.0731H21.3304" stroke="white" stroke-width="2" stroke-linecap="round" stroke-linejoin="round"/>
<path d="M6.71354 13.1837L20.9677 13.2907C21.0699 13.2908 21.169 13.2529 21.2481 13.1837C21.3272 13.1144 21.3813 13.0179 21.4014 12.9107L22.9924 4.40145C23.0053 4.33283 23.0037 4.26203 22.9878 4.19414C22.972 4.12625 22.9422 4.06297 22.9008 4.00886C22.8593 3.95476 22.8071 3.91118 22.7479 3.88128C22.6888 3.85138 22.6242 3.83589 22.5587 3.83594L5.27025 3.83594" stroke="white" stroke-width="2" stroke-linecap="round" stroke-linejoin="round"/>
</svg>
